<?xml version="1.0" encoding="UTF-8" standalone="no"?>
<!-- Created with Inkscape (http://www.inkscape.org/) -->

<svg
   version="1.1"
   id="svg1"
   width="2048"
   height="2048"
   viewBox="0 0 2048 2048"
   sodipodi:docname="bigwhitehorse.svg"
   inkscape:version="1.4 (e7c3feb100, 2024-10-09)"
   xmlns:inkscape="http://www.inkscape.org/namespaces/inkscape"
   xmlns:sodipodi="http://sodipodi.sourceforge.net/DTD/sodipodi-0.dtd"
   xmlns="http://www.w3.org/2000/svg"
   xmlns:svg="http://www.w3.org/2000/svg">
  <defs
     id="defs1">
    <filter
       style="color-interpolation-filters:sRGB;"
       inkscape:label="Invert"
       id="filter2"
       x="0"
       y="0"
       width="1"
       height="1">
      <feColorMatrix
         type="hueRotate"
         values="180"
         result="color1"
         id="feColorMatrix1" />
      <feColorMatrix
         values="-1 0 0 0 1 0 -1 0 0 1 0 0 -1 0 1 -0.21 -0.72 -0.07 2 0 "
         result="color2"
         id="feColorMatrix2" />
    </filter>
  </defs>
  <sodipodi:namedview
     id="namedview1"
     pagecolor="#ffffff"
     bordercolor="#000000"
     borderopacity="0.25"
     inkscape:showpageshadow="2"
     inkscape:pageopacity="0.0"
     inkscape:pagecheckerboard="0"
     inkscape:deskcolor="#d1d1d1"
     inkscape:zoom="0.17794654"
     inkscape:cx="1078.9757"
     inkscape:cy="1157.6511"
     inkscape:window-width="1438"
     inkscape:window-height="780"
     inkscape:window-x="0"
     inkscape:window-y="0"
     inkscape:window-maximized="1"
     inkscape:current-layer="g1" />
  <g
     inkscape:groupmode="layer"
     inkscape:label="Image"
     id="g1">
    <path
       style="fill:#000000;stroke-width:1.35252;filter:url(#filter2)"
       d="m 925.86417,2024.9613 c 23.28577,-10.5704 153.16503,-92.5116 153.65343,-96.9405 0.039,-0.3437 -7.2084,-12.1404 -16.1031,-26.2147 -87.29668,-138.1327 -142.58412,-253.3746 -157.50584,-328.3068 -13.35706,-67.0746 -17.88265,-164.3927 -11.11669,-239.0531 0.80882,-8.9254 2.97964,-36.17 4.82405,-60.5434 l 3.3533,-44.3153 0.0168,-63.0402 c 0.0156,-60.1526 -0.83114,-78.313 -5.20887,-111.7245 -3.29034,-25.1123 -9.61932,-57.0207 -12.4577,-62.8076 l -2.04131,-4.1618 -3.3268,0.8794 c -1.82977,0.4837 -10.58068,3.5598 -19.44658,6.8359 -45.60935,16.853 -65.37847,20.7099 -112.83822,22.0137 l -26.37777,0.7247 -2.93087,2.2075 c -1.61196,1.2142 -21.39529,12.7352 -43.96294,25.6023 -22.56765,12.867 -45.64819,26.331 -51.29011,29.9199 -5.64191,3.5889 -16.72648,10.2665 -24.63236,14.839 -15.27502,8.8347 -23.5187,13.9364 -59.61333,36.8932 -38.73557,24.6367 -68.79164,52.2709 -86.54809,79.5747 l -7.46841,11.4839 -1.23565,20.9839 -1.23569,20.9839 -2.86626,7.7074 c -11.64318,31.3085 -50.18451,56.8083 -96.64489,63.9428 l -15.00157,2.3036 -5.20414,3.3813 c -6.88379,4.4727 -21.32813,9.9769 -33.02007,12.5829 l -9.44053,2.1043 -18.3179,-0.67 c -18.11638,-0.6628 -31.87652,-3.0324 -44.69566,-7.6974 -25.72429,-9.3613 -97.14674,-43.852 -121.646578,-58.7446 l -9.033084,-5.4908 -4.894707,-15.3071 c -12.288182,-38.4283 -29.319572,-63.6567 -64.002767,-94.8063 l -9.2468687,-8.3046 0.017265,-15.4134 c 0.020264,-18.0212 3.1855237,-49.0804 7.5631927,-74.2117 l 1.544334,-8.8657 11.520491,-8.9769 C 46.54145,1040.6621 60.156323,1023.069 90.446602,974.93032 100.9682,958.20895 128.37244,915.8352 138.07857,901.2795 c 5.0361,-7.55232 16.92057,-25.809 26.40994,-40.57037 9.48938,-14.76137 24.20463,-37.51198 32.70055,-50.55692 63.05897,-96.82284 79.22724,-128.76158 87.52273,-172.89218 l 2.46387,-13.10735 -0.91494,-34.12319 -0.91496,-34.12321 17.39637,-16.01508 c 56.76089,-52.25408 65.38129,-64.86121 81.51563,-119.21452 8.43822,-28.4266 13.56919,-42.7886 24.68287,-69.0892 2.13119,-5.04343 3.87487,-9.67007 3.87487,-10.28142 0,-0.61132 -6.26706,2.48293 -13.9268,6.87617 -13.19556,7.56826 -53.86143,25.68249 -57.6564,25.68249 -0.97386,0 6.01674,-6.60048 15.53469,-14.66775 9.51796,-8.06726 26.51718,-24.47993 37.77601,-36.47261 33.78203,-35.98384 49.18714,-49.3562 74.32348,-64.5162 l 11.3553,-6.84852 -1.54714,-2.46254 C 454.37775,210.22408 444.65199,141.18904 455.56751,84.878884 c 4.04223,-20.852747 3.27172,-20.706158 16.52099,-3.143071 26.68903,35.378637 71.76472,72.017837 113.41029,92.184107 12.19571,5.90558 12.64731,6.02659 11.28134,3.02248 -13.36343,-29.38962 -11.24738,-88.293416 5.26888,-146.668151 7.31796,-25.864432 4.72348,-25.319104 29.48663,-6.197691 38.98277,30.101427 65.97393,56.239493 90.5016,87.641172 6.70347,8.5822 16.2533,20.09794 21.2218,25.59054 4.96852,5.4926 13.49867,15.2861 18.95591,21.76334 9.73953,11.55988 37.0039,37.48598 39.45292,37.51636 0.68514,0.009 6.73363,-2.20554 13.44095,-4.92008 23.20135,-9.38985 49.36088,-15.80067 79.83375,-19.56461 l 18.31782,-2.26258 34.43761,0.007 c 32.7461,0.006 42.38281,0.61272 79.8662,5.03343 48.1966,5.68425 189.975,37.03659 205.4746,45.43792 l 2.6166,1.41829 -5.1289,-0.74377 c -43.4658,-6.30306 -119.7287,-3.47175 -173.6537,6.44696 l -4.3963,0.80863 33.3959,4.04804 c 18.3675,2.22642 36.5021,4.63939 40.2992,5.36216 33.8046,6.43475 79.59,15.88969 129.9998,26.84566 82.3855,17.90547 119.0764,24.14196 169.9901,28.89389 41.9445,3.91482 128.8449,5.22216 148.5633,2.23504 l 4.9508,-0.75001 -0.5966,1.52465 c -0.9686,2.4749 -83.6025,25.61403 -126.5396,35.43355 -47.6625,10.90016 -99.5644,17.80106 -144.1918,19.17185 l -25.4917,0.78302 11.332,3.55053 c 11.8319,3.70723 27.1342,7.10114 57.9693,12.85722 116.6787,21.78068 188.2968,52.2761 282.8076,120.4212 23.8319,17.18358 38.2122,28.92716 121.6515,99.34603 83.8311,70.74945 121.2151,98.80325 166.9484,125.28177 24.16,13.98806 23.0598,14.11518 -9.8172,1.1345 -49.4792,-19.53538 -58.9778,-23.95022 -126.7217,-58.89956 -86.0804,-44.409 -136.3441,-67.46998 -175.3812,-80.46481 -10.7934,-3.59294 -10.5719,-2.97922 1.7503,4.85249 5.8299,3.70538 17.1943,10.94349 25.2542,16.08465 88.241,56.28653 149.8655,118.35422 251.3184,253.12566 80.3549,106.74448 115.9343,143.08251 157.9034,161.27041 10.0437,4.3526 7.2372,4.163 -8.0211,-0.542 -38.6556,-11.9196 -55.496,-22.612 -123.8834,-78.65611 -69.5252,-56.97642 -95.9964,-77.26692 -136.6359,-104.73346 -12.0898,-8.17097 -23.6059,-16.01747 -25.5914,-17.43663 -5.5504,-3.96729 13.2969,14.13588 32.9525,31.65159 154.995,138.12041 222.2532,240.46741 242.5834,369.14051 l 3.1296,19.8078 0.7825,31.9414 c 1.3587,55.4561 -4.4601,96.1075 -21.1997,148.1085 -6.9447,21.5733 -7.2621,20.4205 -2.5436,-9.2347 l 3.9397,-24.7619 -0.1066,-28.631 c -0.5084,-135.7494 -52.377,-229.422 -178.9452,-323.1674 -25.4847,-18.8757 -25.4194,-18.8837 -9.9616,1.2291 124.538,162.0421 166.4832,295.275 136.6996,434.2066 -5.4114,25.2423 -24.0187,79.4491 -32.9947,96.1207 -1.4786,2.7462 -4.7977,9.3758 -7.3756,14.7324 -6.3444,13.1819 -6.6565,11.6258 -1.4155,-7.0554 2.4385,-8.6924 6.1422,-25.4916 8.2303,-37.3313 l 3.7963,-21.5269 0.7715,-34.0521 c 1.6133,-71.1991 -10.2539,-121.9652 -40.1881,-171.9205 -6.2318,-10.4 -21.8131,-32.6017 -20.5877,-29.3355 52.6683,140.386 6.3482,320.3168 -115.2068,447.5223 -38.9131,40.722 -98.8043,98.0796 -110.7925,106.1054 l -3.7266,2.4948 2.7584,-3.7431 c 1.5172,-2.0588 3.9006,-4.8666 5.2964,-6.2399 27.7276,-27.2771 103.0274,-142.4583 125.2696,-191.6168 2.9513,-6.5226 8.214,-18.0383 11.6954,-25.5906 3.4813,-7.5523 8.1347,-18.7872 10.3408,-24.9664 2.2061,-6.1792 4.89,-13.4819 5.964,-16.2281 6.7055,-17.1452 20.1347,-62.8774 24.7435,-84.2616 3.2789,-15.2141 6.6249,-33.5436 6.6085,-36.2013 -0.014,-1.7164 -6.1778,12.3273 -13.7048,31.2081 -92.5114,232.052 -207.535,382.1416 -373.1414,486.8965 -11.5962,7.3351 -75.6788,43.9295 -89.3914,51.0468 -4.4329,2.3009 -9.7085,5.0488 -11.7234,6.1067 -14.5508,7.639 28.9673,-20.4981 71.0734,-45.9535 79.4569,-48.0357 149.2581,-107.5019 178.7816,-152.3107 24.3214,-36.9133 58.9285,-110.6169 76.8431,-163.6541 8.8376,-26.1648 8.9031,-26.7085 1.8662,-15.4811 -13.7925,22.006 -51.567,70.6767 -78.1912,100.7463 -82.0136,92.6263 -210.9726,181.1586 -365.5177,250.9332 -71.4871,32.2752 -80.977,36.052 -63.3406,25.2076 106.0493,-65.2074 211.4775,-164.8598 258.8673,-244.6854 5.6672,-9.546 11.0041,-19.0416 11.8599,-21.1014 l 1.5558,-3.745 -7.6986,7.4153 c -42.2123,40.6588 -137.2772,108.6883 -206.1207,147.5024 -22.8962,12.9089 -27.9211,15.627 -49.9686,27.0281 -72.2826,37.3789 -140.9957,66.3939 -221.28016,93.4384 -10.07488,3.3939 -21.13823,7.2808 -24.58517,8.6379 -8.77345,3.4537 -12.39475,3.0904 -4.57535,-0.459 z"
       id="path21856" />
  </g>
</svg>
